<?xml version="1.0" encoding="UTF-8"?>
<svg width="138px" height="58px" viewBox="0 0 138 58" version="1.1" xmlns="http://www.w3.org/2000/svg" xmlns:xlink="http://www.w3.org/1999/xlink">
    <!-- Generator: Sketch 50.2 (55047) - http://www.bohemiancoding.com/sketch -->
    <title>MSpy Logo</title>
    <desc>Created with Sketch.</desc>
    <defs>
        <polygon id="path-1" points="0.439907547 0.328302222 22.2465113 0.328302222 22.2465113 22.2888889 0.439907547 22.2888889"></polygon>
    </defs>
    <g id="Page-1" stroke="none" stroke-width="1" fill="none" fill-rule="evenodd">
        <g id="WHTOURS-767-PS-MSPY-Tour-1" transform="translate(-116.000000, -722.000000)">
            <g id="MSpy-Logo" transform="translate(116.000000, 722.000000)">
                <path d="M66.707117,4.04976 C63.1750981,-0.590262222 56.3766453,-1.34939556 51.7822868,2.32433778 L38.9508906,12.5864044 L26.9878528,2.78847111 C26.9761358,2.77929333 26.963117,2.77404889 26.9514,2.76618222 C25.6989849,1.63862667 24.1614566,0.798204444 22.4143245,0.374715556 L22.2034189,0.323582222 C16.2056264,-1.12388444 10.1778906,2.59704889 8.73800377,8.63602667 L0.320003774,43.9429378 C-1.04176981,49.6502044 2.04760755,55.6695156 7.61577736,57.4054267 C13.7177208,59.30916 20.0487962,55.6118267 21.5160226,49.4574711 L24.9295698,35.1414489 C25.4203811,33.0803822 27.8796453,32.2425822 29.5135132,33.5786044 L31.2853811,35.0313156 C35.9357208,38.8387822 42.6052868,38.4546267 46.8077774,34.3574044 C47.2061547,34.0991156 47.5980226,33.8185378 47.9781736,33.5156711 L53.009966,28.9189156 C53.7090792,28.2790933 54.712834,28.1584711 55.5681736,28.5570489 C57.2215698,29.3292933 59.093683,29.7016489 61.0699472,29.5430044 C65.0328906,29.2230933 68.6143811,26.6506933 70.1753434,22.9690933 C72.0839094,18.4614933 70.2391358,8.68978222 66.707117,4.04976" id="Fill-1" fill="#FEFEFE"></path>
                <g id="Group-5" transform="translate(55.981132, 35.619611)">
                    <mask id="mask-2" fill="white">
                        <use xlink:href="#path-1"></use>
                    </mask>
                    <g id="Clip-4"></g>
                    <path d="M22.2465113,11.3088578 C22.2465113,17.3727467 17.3644358,22.2894133 11.3432094,22.2894133 C5.32198302,22.2894133 0.439907547,17.3727467 0.439907547,11.3088578 C0.439907547,5.24365778 5.32198302,0.328302222 11.3432094,0.328302222 C17.3644358,0.328302222 22.2465113,5.24365778 22.2465113,11.3088578" id="Fill-3" fill="#FEFEFE" mask="url(#mask-2)"></path>
                </g>
                <path d="M89.1265189,51.6723311 C89.4441792,52.35542 89.9909717,52.9585311 90.7655943,53.4829756 C91.5389151,54.0061089 92.4671604,54.26702 93.5490283,54.26702 C94.1218585,54.26702 94.6842736,54.1988422 95.2362736,54.0598644 C95.7869717,53.9208867 96.2751792,53.7137311 96.6995943,53.4344644 C97.1240094,53.15782 97.4690094,52.8090644 97.7345943,52.3934422 C97.9988774,51.9765089 98.1316698,51.4809089 98.1316698,50.9027089 C98.1316698,50.3271311 98.0040849,49.83022 97.750217,49.4119756 C97.4950472,48.9963533 97.1552547,48.6541533 96.7321415,48.3866867 C96.3077264,48.1205311 95.8195189,47.9173089 95.2675189,47.7783311 C94.7155189,47.6393533 94.1439906,47.5698644 93.5490283,47.5698644 C92.4671604,47.5698644 91.4751226,47.4518644 90.574217,47.2184867 C89.6720094,46.9824867 88.8869717,46.6245533 88.2191038,46.1433756 C87.5512358,45.6635089 87.0304811,45.0433533 86.6594434,44.28422 C86.2884057,43.5263978 86.1035377,42.6138644 86.1035377,41.5439978 C86.1035377,40.5842644 86.2779906,39.7189311 86.6281981,38.9493089 C86.9784057,38.1796867 87.4757264,37.5280644 88.124066,36.9944422 C88.7711038,36.4595089 89.5561415,36.0543756 90.4791792,35.77642 C91.402217,35.4984644 92.4255,35.3607978 93.5490283,35.3607978 C93.5711604,35.3607978 93.8302358,35.3804644 94.3288585,35.4237311 C94.8274811,35.4669978 95.415934,35.59942 96.0955189,35.8249311 C96.7738019,36.0491311 97.4794245,36.3965756 98.2123868,36.8659533 C98.9440472,37.3353311 99.5637453,38.0092422 100.072783,38.8850644 C100.136575,39.0135533 100.200368,39.1735089 100.26416,39.3649311 C100.327953,39.5589756 100.359198,39.7503978 100.359198,39.9431311 C100.359198,40.3482644 100.19516,40.74422 99.8670849,41.1283756 C99.5377075,41.5125311 99.0976698,41.7052644 98.5456698,41.7052644 C98.2696698,41.7052644 98.0040849,41.6475756 97.750217,41.5295756 C97.4950472,41.4115756 97.2828396,41.2568644 97.1135943,41.0641311 L97.1461415,41.0969089 C96.9118019,40.8189533 96.6787642,40.5514867 96.4457264,40.2945089 C96.2113868,40.0388422 95.9575189,39.8146422 95.6815189,39.62322 C95.4055189,39.4291756 95.093066,39.2757756 94.7428585,39.1577756 C94.3926509,39.0397756 93.9838585,38.9807756 93.517783,38.9807756 C92.137783,38.9807756 91.1522547,39.2482422 90.5585943,39.7831756 C89.964934,40.3167978 89.6681038,40.9041756 89.6681038,41.5439978 C89.6681038,41.9937089 89.7683491,42.37262 89.9688396,42.6833533 C90.1706321,42.9927756 90.4466321,43.2431978 90.7968396,43.4359311 C91.1470472,43.6273533 91.5610472,43.7676422 92.0375377,43.8528644 C92.5153302,43.9380867 93.0191604,43.9813533 93.5490283,43.9813533 C94.6530283,43.9813533 95.7023491,44.13082 96.6995943,44.4297533 C97.6968396,44.7286867 98.5717075,45.1665978 99.3255,45.7434867 C100.077991,46.3203756 100.672953,47.0414867 101.107783,47.90682 C101.542613,48.7721533 101.760028,49.77122 101.760028,50.9027089 C101.760028,52.0787756 101.537406,53.1040644 101.090858,53.9798867 C100.645613,54.8557089 100.046745,55.5807533 99.2942547,56.1589533 C98.5404623,56.7358422 97.6551792,57.1671978 96.6371038,57.4569533 C95.6177264,57.7453978 94.5358585,57.88962 93.3901981,57.88962 C93.1571604,57.88962 92.7223302,57.8515978 92.0857075,57.7768644 C91.4490849,57.7021311 90.7330472,57.4989089 89.9375943,57.1671978 C89.1421415,56.8367978 88.3466887,56.3307089 87.5512358,55.6463089 C86.755783,54.96322 86.0918208,54.0113533 85.5619528,52.7933311 C85.4135377,52.5166867 85.3497453,52.2111978 85.3705755,51.8807978 C85.3914057,51.5490867 85.4708208,51.2514644 85.6101226,50.9839978 C85.7481226,50.7165311 85.9447075,50.4923311 86.1985755,50.3100867 C86.4537453,50.1278422 86.7492736,50.0373756 87.0903679,50.0373756 C87.5772736,50.0373756 87.9964811,50.1933978 88.3466887,50.5015089 C88.6968962,50.8122422 88.9559717,51.2029533 89.1265189,51.6723311" id="Fill-6" fill="#EB9628"></path>
                <path d="M107.710172,39.5585822 L107.710172,47.9536267 L112.006398,47.9536267 C112.600058,47.9536267 113.157266,47.8474267 113.676719,47.6337156 C114.196172,47.4200044 114.647926,47.1223822 115.029379,46.7369156 C115.410832,46.35276 115.71287,45.9030489 115.935492,45.3904044 C116.158115,44.8790711 116.270077,44.3336489 116.270077,43.7554489 C116.270077,43.1798711 116.158115,42.6344489 115.935492,42.1218044 C115.71287,41.6078489 115.405625,41.1660044 115.012455,40.7910267 C114.620587,40.41736 114.164926,40.1197378 113.645474,39.8942267 C113.124719,39.6700267 112.579228,39.5585822 112.006398,39.5585822 L107.710172,39.5585822 Z M104.240643,37.8279156 C104.240643,37.3362489 104.411191,36.9193156 104.750983,36.5784267 C105.089474,36.2362267 105.503474,36.0644711 105.991681,36.0644711 L112.006398,36.0644711 C113.066134,36.0644711 114.063379,36.2676933 114.996832,36.6741378 C115.930285,37.0792711 116.74787,37.6299378 117.446983,38.3248267 C118.147398,39.0184044 118.704606,39.8299822 119.118606,40.75956 C119.532606,41.6891378 119.738304,42.6882044 119.738304,43.7554489 C119.738304,44.8253156 119.536511,45.8283156 119.134228,46.7683822 C118.730643,47.70976 118.179945,48.5265822 117.47953,49.22016 C116.779115,49.9137378 115.956323,50.4644044 115.012455,50.8708489 C114.068587,51.2772933 113.066134,51.4805156 112.006398,51.4805156 L107.710172,51.4805156 L107.710172,55.5816711 C107.710172,56.0746489 107.546134,56.4902711 107.216757,56.8324711 C106.887379,57.1746711 106.479889,57.3438044 105.991681,57.3438044 C105.503474,57.3438044 105.089474,57.1746711 104.750983,56.8324711 C104.411191,56.4902711 104.240643,56.0746489 104.240643,55.5816711 L104.240643,37.8279156 Z" id="Fill-8" fill="#EB9628"></path>
                <path d="M121.552874,37.6995578 C121.552874,37.2078911 121.722119,36.7922689 122.061911,36.4500689 C122.400402,36.1078689 122.814402,35.9361133 123.302609,35.9361133 C123.769987,35.9361133 124.178779,36.1078689 124.527685,36.4500689 C124.877892,36.7922689 125.052345,37.2078911 125.052345,37.6995578 L125.052345,43.7241133 C125.052345,44.3010022 125.164308,44.8451133 125.38693,45.3590689 C125.609553,45.8704022 125.9181,46.3201133 126.309968,46.7042689 C126.703138,47.0897356 127.158798,47.3939133 127.678251,47.6181133 C128.197704,47.8423133 128.754911,47.9537578 129.348572,47.9537578 C129.942232,47.9537578 130.494232,47.8423133 131.00327,47.6181133 C131.512308,47.3939133 131.958855,47.0897356 132.340308,46.7042689 C132.723062,46.3201133 133.0251,45.8704022 133.247723,45.3590689 C133.470345,44.8451133 133.581006,44.3010022 133.581006,43.7241133 L133.581006,37.6995578 C133.581006,37.2078911 133.751553,36.7922689 134.090043,36.4500689 C134.429836,36.1078689 134.842534,35.9361133 135.332043,35.9361133 C135.798119,35.9361133 136.206911,36.1078689 136.557119,36.4500689 C136.906025,36.7922689 137.081779,37.2078911 137.081779,37.6995578 L137.081779,43.7241133 C137.081779,44.6209133 136.928157,45.4823133 136.620911,46.3030689 C136.312364,47.1264467 135.893157,47.8750911 135.363289,48.54638 C134.833421,49.2202911 134.196798,49.7932467 133.454723,50.2626244 C132.711345,50.7320022 131.915892,51.0624022 131.068364,51.2551356 L131.068364,55.5818022 C131.068364,56.07478 130.903025,56.4904022 130.574949,56.8326022 C130.245572,57.1748022 129.836779,57.3439356 129.348572,57.3439356 C128.860364,57.3439356 128.446364,57.1748022 128.107874,56.8326022 C127.768081,56.4904022 127.598836,56.07478 127.598836,55.5818022 L127.598836,51.2551356 C126.729175,51.0624022 125.928515,50.7320022 125.196855,50.2626244 C124.463892,49.7932467 123.828572,49.2202911 123.286987,48.54638 C122.746704,47.8750911 122.320987,47.1264467 122.013742,46.3030689 C121.706496,45.4823133 121.552874,44.6209133 121.552874,43.7241133 L121.552874,37.6995578 Z" id="Fill-10" fill="#EB9628"></path>
            </g>
        </g>
    </g>
</svg>